<svg id="Layer_1" data-name="Layer 1" xmlns="http://www.w3.org/2000/svg" viewBox="0 0 492.39 95.48"><title>dark-4</title><path d="M151.66,176.94V126.82h9.46v41.53H184v8.59Z" transform="translate(-3.72 -102.35)"/><path d="M204.44,177.94a20.75,20.75,0,0,1-9.53-2.14,16.25,16.25,0,0,1-6.66-6.23,18.86,18.86,0,0,1-2.43-9.81v-1.15a18.83,18.83,0,0,1,2.43-9.81,16.19,16.19,0,0,1,6.66-6.23,22.17,22.17,0,0,1,19.05,0,16.07,16.07,0,0,1,6.66,6.23,18.84,18.84,0,0,1,2.44,9.81v1.15a18.86,18.86,0,0,1-2.44,9.81A16.13,16.13,0,0,1,214,175.8,20.74,20.74,0,0,1,204.44,177.94Zm0-8a9.42,9.42,0,0,0,6.87-2.65c1.82-1.81,2.72-4.39,2.72-7.73v-.72c0-3.34-.9-5.89-2.72-7.66a9.17,9.17,0,0,0-6.87-2.72,9.35,9.35,0,0,0-6.88,2.72q-2.72,2.66-2.72,7.66v.72q0,5,2.72,7.73A9.46,9.46,0,0,0,204.44,169.92Z" transform="translate(-3.72 -102.35)"/><path d="M226.44,159.33v-1.15a19.09,19.09,0,0,1,2.22-9.52,15.32,15.32,0,0,1,5.87-6.09,16,16,0,0,1,8.1-2.15q4.86,0,7.37,1.72a12.46,12.46,0,0,1,3.65,3.58h1.29v-4.3h8.88v41.82a7.8,7.8,0,0,1-2.15,5.8,7.59,7.59,0,0,1-5.72,2.22H232.17v-7.87h20.62c1.34,0,2-.72,2-2.15V172h-1.29a12.75,12.75,0,0,1-2,2.36,10.67,10.67,0,0,1-3.44,1.94,16.15,16.15,0,0,1-5.44.78,16.41,16.41,0,0,1-8.1-2.07,16,16,0,0,1-5.87-6.09A19.5,19.5,0,0,1,226.44,159.33Zm18.76,9.88a9.35,9.35,0,0,0,9.74-10.1v-.71q0-4.87-2.79-7.45a9.53,9.53,0,0,0-7-2.65,9.68,9.68,0,0,0-6.94,2.65q-2.79,2.58-2.79,7.45v.71a9.35,9.35,0,0,0,9.73,10.1Z" transform="translate(-3.72 -102.35)"/><path d="M287.5,177.94A20.74,20.74,0,0,1,278,175.8a16.13,16.13,0,0,1-6.66-6.23,18.86,18.86,0,0,1-2.44-9.81v-1.15a18.84,18.84,0,0,1,2.44-9.81,16.07,16.07,0,0,1,6.66-6.23,22.17,22.17,0,0,1,19,0,16.19,16.19,0,0,1,6.66,6.23,18.83,18.83,0,0,1,2.43,9.81v1.15a18.86,18.86,0,0,1-2.43,9.81A16.25,16.25,0,0,1,297,175.8,20.75,20.75,0,0,1,287.5,177.94Zm0-8a9.46,9.46,0,0,0,6.88-2.65q2.72-2.72,2.72-7.73v-.72q0-5-2.72-7.66a9.2,9.2,0,0,0-6.88-2.72,9.31,9.31,0,0,0-6.87,2.72c-1.82,1.77-2.72,4.32-2.72,7.66v.72c0,3.34.9,5.92,2.72,7.73A9.42,9.42,0,0,0,287.5,169.92Z" transform="translate(-3.72 -102.35)"/><path d="M311.23,176.94V141.42h9v35.52Zm4.51-39.67a5.94,5.94,0,0,1-4.16-1.57,6.08,6.08,0,0,1,0-8.31,5.94,5.94,0,0,1,4.16-1.58,5.77,5.77,0,0,1,4.15,1.58,6.06,6.06,0,0,1,0,8.31A5.76,5.76,0,0,1,315.74,137.27Z" transform="translate(-3.72 -102.35)"/><path d="M327,191.26V141.42h8.87v4.3h1.29a10.78,10.78,0,0,1,3.8-3.65c1.72-1.1,4.17-1.65,7.38-1.65a15.39,15.39,0,0,1,7.94,2.15,15.13,15.13,0,0,1,5.87,6.16,20.4,20.4,0,0,1,2.23,9.88v1.15a20.43,20.43,0,0,1-2.23,9.88,15.64,15.64,0,0,1-5.87,6.23,15.81,15.81,0,0,1-7.94,2.07,16.58,16.58,0,0,1-5.45-.78,10.59,10.59,0,0,1-3.51-1.87,13.14,13.14,0,0,1-2.07-2.43h-1.29v18.4Zm18.61-21.19a9.57,9.57,0,0,0,6.95-2.65c1.86-1.82,2.79-4.44,2.79-7.88v-.72q0-5.15-2.79-7.8a10.23,10.23,0,0,0-13.89,0q-2.81,2.65-2.8,7.8v.72c0,3.44.93,6.06,2.8,7.88A9.72,9.72,0,0,0,345.64,170.07Z" transform="translate(-3.72 -102.35)"/><path d="M384.22,177.94q-6.95,0-11.39-3a12.37,12.37,0,0,1-5.37-8.6l8.31-2.14a8.91,8.91,0,0,0,1.65,3.93,7,7,0,0,0,2.93,2.08,12.66,12.66,0,0,0,3.87.57,8,8,0,0,0,4.65-1.07,3.43,3.43,0,0,0,1.51-2.79,2.75,2.75,0,0,0-1.44-2.51,13,13,0,0,0-4.58-1.5l-2-.36a38.45,38.45,0,0,1-6.81-1.93,12.73,12.73,0,0,1-4.94-3.51,8.62,8.62,0,0,1-1.86-5.73,9.35,9.35,0,0,1,3.87-8.09c2.57-1.91,6-2.87,10.17-2.87a17.31,17.31,0,0,1,9.88,2.65,12.22,12.22,0,0,1,5.15,7l-8.37,2.57a5.72,5.72,0,0,0-2.37-3.86,7.54,7.54,0,0,0-4.29-1.15,7,7,0,0,0-3.94.93,2.73,2.73,0,0,0-1.36,2.44,2.82,2.82,0,0,0,1.43,2.58,12.62,12.62,0,0,0,3.87,1.21l2,.36A41.22,41.22,0,0,1,392,157a11.49,11.49,0,0,1,5.16,3.37,8.44,8.44,0,0,1,1.93,5.87,10.24,10.24,0,0,1-4.08,8.67Q391,177.94,384.22,177.94Z" transform="translate(-3.72 -102.35)"/><path d="M417.33,177.51a14.08,14.08,0,0,1-7.3-1.86,13.17,13.17,0,0,1-4.8-5.3,16.7,16.7,0,0,1-1.72-7.73v-21.2h9V161.9c0,2.68.65,4.68,1.94,6a7.61,7.61,0,0,0,5.65,2,8,8,0,0,0,6.45-2.72q2.3-2.79,2.29-7.73V141.42h9v35.52H429v-4.65h-1.29a9.94,9.94,0,0,1-3.22,3.51Q422.14,177.51,417.33,177.51Z" transform="translate(-3.72 -102.35)"/><path d="M444.7,176.94V141.42h8.88v3.87h1.29a8,8,0,0,1,3.08-3.08,10.39,10.39,0,0,1,5.65-1.36,11,11,0,0,1,6.09,1.5,9.57,9.57,0,0,1,3.51,3.8h1.29a10.51,10.51,0,0,1,3.44-3.8,11.2,11.2,0,0,1,6.3-1.5,12.36,12.36,0,0,1,5.94,1.43,10,10,0,0,1,4.3,4.23,13.75,13.75,0,0,1,1.64,7.09v23.34h-9v-22.7a5.79,5.79,0,0,0-1.5-4.37,5.72,5.72,0,0,0-4.23-1.5,6,6,0,0,0-4.79,2,8.35,8.35,0,0,0-1.65,5.58v21h-9v-22.7a5.79,5.79,0,0,0-1.51-4.37,5.71,5.71,0,0,0-4.22-1.5,6,6,0,0,0-4.8,2,8.35,8.35,0,0,0-1.65,5.58v21Z" transform="translate(-3.72 -102.35)"/><path d="M123.07,150.09a47.74,47.74,0,1,0-95.48,0H42.51c4.94,0,8.8-4.14,10.61-8.74a23.87,23.87,0,0,1,46.08,8.74Z" transform="translate(-3.72 -102.35)"/><path d="M95.57,168.36a47.71,47.71,0,0,0,3.63-18.27h23.87a47.78,47.78,0,0,1-59.7,46.23,47.73,47.73,0,0,0,32.2-28Z" transform="translate(-3.72 -102.35)"/><path d="M3.72,150.09a47.74,47.74,0,1,0,95.48,0H84.28c-4.94,0-8.8,4.14-10.61,8.74,0,.13-.1.26-.16.39a23.87,23.87,0,0,1-45.92-9.13Z" transform="translate(-3.72 -102.35)"/><path d="M3.73,150.09a47.77,47.77,0,0,1,59.69-46.23,47.72,47.72,0,0,0-35.83,46.23Z" transform="translate(-3.72 -102.35)"/></svg>