<?xml version="1.0" encoding="utf-8"?>
<!-- Generator: Adobe Illustrator 23.1.0, SVG Export Plug-In . SVG Version: 6.00 Build 0)  -->
<svg version="1.1" id="Layer_1" xmlns="http://www.w3.org/2000/svg" xmlns:xlink="http://www.w3.org/1999/xlink" x="0px" y="0px"
	 viewBox="0 0 163 60" style="enable-background:new 0 0 163 60;" xml:space="preserve">
<style type="text/css">
	.st0{fill:#FFFFFF;}
	.st1{fill:#FF4A17;}
</style>
<path class="st0" d="M62.5,35.2l2.1-10.8l2.1,10.8H62.5z M68.4,44h5.8l-5.9-25.4H61L55.2,44h5.6l0.9-4.6h5.8L68.4,44z M84.3,39
	c-0.8,0-1.1-0.3-1.1-1v-8.6c0-0.7,0.3-1,1.1-1h0.9c0.8,0,1.2,0.4,1.2,1.3v8c0,0.9-0.4,1.3-1.2,1.3H84.3z M86.5,24.2v2.2
	c-0.4-1.4-1.4-2.2-3.2-2.2h-1c-3.3,0-4.7,1.7-4.7,4.4v10.1c0,2.8,1.4,4.4,4.7,4.4h1c1.7,0,2.8-0.7,3.2-2v3c0,0.8-0.3,1-1.1,1h-6.9
	v4.1H87c3.6,0,5-1.7,5-4.4V24.2H86.5z M102.9,44V24.2h-5.6V44H102.9z M97.2,21.6h5.8v-4.3h-5.8V21.6z M116.9,24.2
	c-1.8,0-2.8,0.8-3.2,2.2v-2.2h-5.5V44h5.6V29.7c0-0.9,0.4-1.3,1.2-1.3h1c0.8,0,1.1,0.3,1.1,1V44h5.6V28.6c0-2.8-1.4-4.4-4.7-4.4
	H116.9z M141.7,31.3v-2.7c0-2.8-1.4-4.4-5.1-4.4h-4.1c-3.6,0-5.1,1.7-5.1,4.4v10.9c0,2.8,1.4,4.4,5.1,4.4h4.1c3.6,0,5.1-1.7,5.1-4.4
	v-2.7h-5.4v1.9c0,0.7-0.3,1-1.1,1h-1c-0.8,0-1.1-0.3-1.1-1v-9.4c0-0.7,0.3-1,1.1-1h1c0.8,0,1.1,0.3,1.1,1v1.9H141.7z M155.3,39
	c0,0.7-0.3,1-1.1,1h-1.5c-0.8,0-1.1-0.3-1.1-1v-9.8c0-0.7,0.3-1,1.1-1h1.5c0.8,0,1.1,0.3,1.1,1V39z M151.1,24.2
	c-3.6,0-4.9,1.7-4.9,4.4v10.9c0,2.8,1.3,4.4,4.9,4.4h4.8c3.6,0,4.9-1.7,4.9-4.4V28.6c0-2.8-1.3-4.4-4.9-4.4H151.1z"/>
<path class="st1" d="M8.1,31.6c0-3.8,1.4-7.3,4.1-10c2.6-2.7,6.1-4.1,9.8-4.1h13.9L20,8.1c-0.2-0.1-0.5-0.1-0.7,0l-19,11.2
	C0.1,19.4,0,19.6,0,19.8v22.3c0,0.2,0.1,0.5,0.3,0.6l7.8,4.6V31.6z"/>
<path class="st0" d="M22,22.9c-4.7,0-8.5,3.9-8.5,8.7v0.7h14.6v5.5H13.5v12.7l5.8,3.4c0.2,0.1,0.5,0.1,0.7,0l19-11.2
	c0.2-0.1,0.3-0.3,0.3-0.6V25l5.7-2H22z"/>
</svg>
